<mxfile host="app.diagrams.net" modified="2025-10-28T00:00:00.000Z" agent="Claude Code" version="24.0.0">
  <diagram name="ログライフサイクル" id="log-lifecycle">
    <mxGraphModel dx="1422" dy="794" grid="1" gridSize="10" guides="1" tooltips="1" connect="1" arrows="1" fold="1" page="1" pageScale="1" pageWidth="1169" pageHeight="827" math="0" shadow="0">
      <root>
        <mxCell id="0" />
        <mxCell id="1" parent="0" />

        <!-- Title -->
        <mxCell id="title" value="ログライフサイクル - コスト最適化" style="text;html=1;strokeColor=none;fillColor=none;align=center;verticalAlign=middle;whiteSpace=wrap;rounded=0;fontSize=20;fontStyle=1" vertex="1" parent="1">
          <mxGeometry x="300" y="20" width="600" height="40" as="geometry" />
        </mxCell>

        <!-- CloudWatch Logs -->
        <mxCell id="cw-logs" value="CloudWatch Logs&#xa;&#xa;直近3ヶ月&#xa;&#xa;リアルタイム検索可能" style="rounded=1;whiteSpace=wrap;html=1;fillColor=#e6f3ff;strokeColor=#6c8ebf;fontSize=14;fontStyle=1;align=center;" vertex="1" parent="1">
          <mxGeometry x="120" y="240" width="240" height="140" as="geometry" />
        </mxCell>

        <!-- S3 Standard -->
        <mxCell id="s3-standard" value="S3 Standard&#xa;&#xa;3ヶ月～1年&#xa;&#xa;コスト削減" style="rounded=1;whiteSpace=wrap;html=1;fillColor=#ffe6e6;strokeColor=#d79b00;fontSize=14;fontStyle=1;align=center;" vertex="1" parent="1">
          <mxGeometry x="420" y="240" width="240" height="140" as="geometry" />
        </mxCell>

        <!-- S3 Glacier -->
        <mxCell id="s3-glacier" value="S3 Glacier&#xa;&#xa;1年～2年&#xa;&#xa;長期保管" style="rounded=1;whiteSpace=wrap;html=1;fillColor=#fff3e6;strokeColor=#d6b656;fontSize=14;fontStyle=1;align=center;" vertex="1" parent="1">
          <mxGeometry x="720" y="240" width="240" height="140" as="geometry" />
        </mxCell>

        <!-- Arrows -->
        <mxCell id="arrow1" style="edgeStyle=orthogonalEdgeStyle;rounded=0;orthogonalLoop=1;jettySize=auto;html=1;strokeWidth=3;endArrow=block;endFill=1;strokeColor=#d79b00;" edge="1" parent="1" source="cw-logs" target="s3-standard">
          <mxGeometry relative="1" as="geometry" />
        </mxCell>

        <mxCell id="arrow2" style="edgeStyle=orthogonalEdgeStyle;rounded=0;orthogonalLoop=1;jettySize=auto;html=1;strokeWidth=3;endArrow=block;endFill=1;strokeColor=#d6b656;" edge="1" parent="1" source="s3-standard" target="s3-glacier">
          <mxGeometry relative="1" as="geometry" />
        </mxCell>

        <!-- Labels -->
        <mxCell id="label1" value="エクスポート&#xa;(毎日)" style="text;html=1;strokeColor=none;fillColor=none;align=center;verticalAlign=middle;whiteSpace=wrap;rounded=0;fontSize=11;fontStyle=1" vertex="1" parent="1">
          <mxGeometry x="360" y="280" width="80" height="30" as="geometry" />
        </mxCell>

        <mxCell id="label2" value="移行&#xa;(ライフサイクル)" style="text;html=1;strokeColor=none;fillColor=none;align=center;verticalAlign=middle;whiteSpace=wrap;rounded=0;fontSize=11;fontStyle=1" vertex="1" parent="1">
          <mxGeometry x="660" y="280" width="100" height="30" as="geometry" />
        </mxCell>

        <!-- Note -->
        <mxCell id="note" value="【ログライフサイクルの目的】&#xa;&#xa;✅ コスト最適化: CloudWatch Logs の長期保管は高コスト → S3 に移行してコスト削減&#xa;✅ リアルタイム検索: 直近3ヶ月は CloudWatch Logs Insights で高速検索&#xa;✅ 長期保管: 監査要件（ISMAP）を満たすため、2年間保管" style="rounded=0;whiteSpace=wrap;html=1;fillColor=#ffffcc;strokeColor=#d6b656;align=left;verticalAlign=top;fontSize=11;" vertex="1" parent="1">
          <mxGeometry x="120" y="420" width="840" height="120" as="geometry" />
        </mxCell>

      </root>
    </mxGraphModel>
  </diagram>
</mxfile>
